<svg width="35" height="31" viewBox="0 0 35 31" fill="none" xmlns="http://www.w3.org/2000/svg">
<path d="M32.0906 18.2439L34.9631 5.65017C35.1705 4.74088 34.4769 3.875 33.5411 3.875H9.6741L9.11714 1.16189C8.97835 0.485647 8.38117 0 7.6884 0H1.45833C0.652908 0 0 0.650576 0 1.45312V2.42188C0 3.22442 0.652908 3.875 1.45833 3.875H5.7047L9.97324 24.6689C8.95204 25.2541 8.26389 26.3513 8.26389 27.6094C8.26389 29.482 9.78736 31 11.6667 31C13.546 31 15.0694 29.482 15.0694 27.6094C15.0694 26.6604 14.6777 25.803 14.0472 25.1875H26.7861C26.1556 25.803 25.7639 26.6604 25.7639 27.6094C25.7639 29.482 27.2874 31 29.1667 31C31.046 31 32.5695 29.482 32.5695 27.6094C32.5695 26.2669 31.7863 25.1069 30.6506 24.5575L30.9858 23.0877C31.1932 22.1784 30.4996 21.3125 29.5638 21.3125H13.2536L12.8559 19.375H30.6686C31.3495 19.375 31.9398 18.9055 32.0906 18.2439Z" fill="white"/>
</svg>
